<?xml version="1.0" encoding="utf-8"?>
<!-- Generator: Adobe Illustrator 27.1.1, SVG Export Plug-In . SVG Version: 6.00 Build 0)  -->
<svg version="1.1" id="Layer_1" xmlns="http://www.w3.org/2000/svg" xmlns:xlink="http://www.w3.org/1999/xlink" x="0px" y="0px"
	 viewBox="0 0 216 216" style="enable-background:new 0 0 216 216;" xml:space="preserve">
<style type="text/css">
	.st0{fill:#FFFFFF;stroke:#000000;stroke-width:8;stroke-miterlimit:10;}
	.st1{fill:none;stroke:#000000;stroke-width:8;stroke-miterlimit:10;}
</style>
<g>
	<path d="M95,41H49c-4.4,0-8,3.6-8,8v46c0,4.4,3.6,8,8,8h46c4.4,0,8-3.6,8-8V49C103,44.6,99.4,41,95,41z M95,95H49l0-46h0h46V95z"/>
	<path d="M167,41h-46c-4.4,0-8,3.6-8,8v46c0,4.4,3.6,8,8,8h46c4.4,0,8-3.6,8-8V49C175,44.6,171.4,41,167,41z M167,95h-46l0-46h0h46
		V95z"/>
	<path d="M167,113h-46c-4.4,0-8,3.6-8,8v46c0,4.4,3.6,8,8,8h46c4.4,0,8-3.6,8-8v-46C175,116.6,171.4,113,167,113z M167,167h-46l0-46
		h0h46V167z"/>
	<path d="M95,113H49c-4.4,0-8,3.6-8,8v46c0,4.4,3.6,8,8,8h46c4.4,0,8-3.6,8-8v-46C103,116.6,99.4,113,95,113z M95,167H49l0-46h0h46
		V167z"/>
</g>
</svg>
