<svg
  version="1.1"
  xmlns="http://www.w3.org/2000/svg"
  xmlns:xlink="http://www.w3.org/1999/xlink"
  x="0px"
  y="0px"
  viewBox="0 0 117 54"
  style="enable-background: new 0 0 117 54"
  xml:space="preserve"
>
  <g>
    <path
      d="M84,31.5c0,4.1-3.4,7.5-7.5,7.5S69,35.6,69,31.5V3H57v28.5C57,42.3,65.7,51,76.5,51S96,42.3,96,31.5V3H84V31.5z"
    />
    <rect x="102" y="3" width="12" height="48" />

    <path fill="var(--primary)"
      d="M27,3C13.8,3,3,13.8,3,27s10.8,24,24,24c0.8,0,1.5,0,2.2-0.1c-0.8-1.7-1.4-3.5-1.7-5.4c0-0.2-0.1-0.4-0.1-0.5
	c-0.6,0.6-1.3,1.2-2,1.6c-1.5,1-3.3,1.5-5.1,0.9c-1.1-0.5-1.9-1.3-2.4-2.3c-0.1-0.3-1-2.4-0.4-2.6c-0.2,0,0.2,0,0,0
	c0.4-0.1,1.1,1.2,1.3,1.4c0.5,0.6,1.1,1.1,1.8,1.4c1.1,0.4,2.3-0.3,3.2-1c0.6-0.5,1.8-1.7,0.3-1.9c-1.2-0.2-2.3-0.3-3.5-0.5
	c-3.9-0.7-7.6-2.1-9.7-5.6C8.7,32.6,8.6,28,9.7,23.9c0.7-2.4,1.7-5.3,3.7-6.9c1.4-1.2,3.5-1.4,4.9-0.1c1.2,1,1.7,2.6,2.2,4.1
	c1,3,1.9,6.4,1.8,9.6c-0.1,1.1-0.3,3.3-1.7,3.6C19,34.3,18,32,17.5,30.9c-0.6-1.5-0.9-3.1-1.2-4.7c-0.2-0.8-0.2-2.6-0.8-3.2
	c-0.1-0.1-1.2,2.9-1.2,2.9c-0.6,2.4-0.7,5,0.2,7.3c2,5,8.1,4.6,12.3,6.3c0,0,0.1,0,0.1,0.1c0-0.1,0-0.1,0-0.2c0-0.8,0.1-4.9,1.3-4.9
	c0,0,0,0-0.1,0c0,0,0,0,0,0c-0.1,0,0,0,0,0c0,0,0,0,0,0c0.1,0,0.3,0,0.1,0c1.1-0.1,1.9,3.7,2.1,4.4c0.7,2.2,1.3,4.5,2.2,6.7
	c0.4,0.9,0.7,1.8,1.2,2.6c0.2,0.4,0.6,1,1,1.5C44.2,46.5,51,37.5,51,27C51,13.8,40.2,3,27,3z M30,19.6c-0.1,2.5-0.7,5.1-1.3,7.5
	c-0.1,0.5-1.1,5.3-1.9,5.2c0.2,0-0.2,0,0,0c-1.4-0.1-1.4-4.6-1.4-5.4c0-2.6,0.2-5.2-0.1-7.8c-0.3-2-1.1-3.6-2.8-4.7
	c-1.1-0.7-2-1.3-2-2.7c0-1.3,0.9-2.5,2.1-2.7c2.3-0.4,5.1,2.6,6.1,4.4C29.7,15.3,30.1,17.5,30,19.6z M39.7,19.7
	c-1.4,2.7-2.4,5.5-3.2,8.3c-0.8,2.9-1.1,5.9-1.4,8.9c-0.1,1.3-0.2,2.7-0.2,4c0,0.6,0.6,3.4,0,3.8c0.2-0.1-0.2,0.1,0,0
	c-1.5,1-3.1-5.6-3.2-6.3c-0.5-3-0.7-6-0.4-9c0.3-3.1,1-6.2,2.2-9.2c0.8-2,1.9-5.9,4.6-5.8c1.2,0,2.1,1,2.4,2.1
	C40.7,17.8,40.2,18.7,39.7,19.7z"
    />
  </g>
</svg>
